<svg xmlns="http://www.w3.org/2000/svg" viewBox="0 0 960 540" role="img" aria-label="2B><>18;L">
  <defs>
    <linearGradient id="bg" x1="0" y1="0" x2="1" y2="1">
      <stop offset="0%" stop-color="#1f1f1f"/>
      <stop offset="100%" stop-color="#3b3b3b"/>
    </linearGradient>
    <linearGradient id="car" x1="0" y1="0" x2="1" y2="0">
      <stop offset="0%" stop-color="#f39200"/>
      <stop offset="100%" stop-color="#ffb347"/>
    </linearGradient>
  </defs>
  <rect width="960" height="540" fill="url(#bg)"/>
  <rect x="0" y="430" width="960" height="110" fill="#161616"/>
  <g transform="translate(90 170)">
    <path d="M70 180h560c23 0 40-17 40-40v-22c0-19-12-35-30-41l-76-27-62-78c-8-10-20-16-33-16H220c-17 0-33 8-43 21l-79 101-58 25c-18 8-30 24-30 43v14c0 22 18 40 40 40h20z" fill="url(#car)"/>
    <circle cx="170" cy="190" r="48" fill="#111"/>
    <circle cx="170" cy="190" r="23" fill="#8c8c8c"/>
    <circle cx="520" cy="190" r="48" fill="#111"/>
    <circle cx="520" cy="190" r="23" fill="#8c8c8c"/>
    <rect x="222" y="72" width="130" height="62" rx="8" fill="#212121" opacity="0.85"/>
    <rect x="360" y="72" width="130" height="62" rx="8" fill="#212121" opacity="0.85"/>
  </g>
  <text x="480" y="70" text-anchor="middle" font-family="Montserrat, Arial, sans-serif" font-size="34" font-weight="700" fill="#f39200">
    AUTO LINE
  </text>
</svg>
